<svg width='25px' height='25px' viewBox="-4.32 0 143.2 143.2" xmlns="http://www.w3.org/2000/svg" fill="#000000" stroke="#000000" stroke-width="7.7328"><g id="SVGRepo_bgCarrier" stroke-width="0"></g><g id="SVGRepo_tracerCarrier" stroke-linecap="round" stroke-linejoin="round"></g><g id="SVGRepo_iconCarrier"> <defs> <style>.cls-1{fill:#000000;}</style> </defs> <g id="Layer_2" data-name="Layer 2"> <g id="Layer_1-2" data-name="Layer 1"> <path d="M86.68,66.35c.57,1.4.83,2.9,1.67,3.93,3.41,4.21,7,8.26,10.51,12.42,4.23,5,8.28,10.24,12.63,15.18,4.54,5.14,9.4,10,14,15.08a93.58,93.58,0,0,1,7.15,8.53c2.21,3.1,2.09,6.47-.27,9.57-1.56,2-3.14,4.08-4.84,6-2.91,3.3-6.07,3.72-9.87,1a87.92,87.92,0,0,1-14.34-13.48C93.06,113.07,82.46,101.82,72,90.49a31.83,31.83,0,0,0-3.62-2.84c-1.46,1.09-2.85,2-4.06,3.07C51.6,102,40.85,115,29.39,127.44c-4.85,5.24-9.76,10.41-14.77,15.76-4.53-1.5-7.59-4.58-10.68-7.32-5.3-4.71-5.07-8.59-.41-13.91C19,104.33,34.34,86.61,50,68.66c-1.28-1.55-2.25-2.89-3.39-4.08-8.1-8.49-16-17.12-22.94-26.66-4.36-6-9.52-11.43-14.25-17.18a47.28,47.28,0,0,1-4.48-6.26C3.29,11.67,3.69,9.76,6.06,7.62c2.12-1.92,4.32-3.75,6.55-5.54,3.53-2.85,6.7-2.86,9.77.53,5.37,5.93,10.86,11.84,15.54,18.3a282.13,282.13,0,0,0,21.5,25.64,87,87,0,0,0,6.63,5.91,42.61,42.61,0,0,0,4.12-3.31c7.12-7.45,14.35-14.81,21.21-22.5,6.72-7.53,14.52-13.77,22.4-20a9.52,9.52,0,0,1,7.68-2.4c3.94,3.81,8.9,7.26,11.75,12.74,2.07,4,1.86,5.12-1.49,8.08q-17,15.07-34,30.16C93.85,58.67,89.85,61.92,86.68,66.35Zm-25.92,6c-5.48-.19-7.54,3.9-10.27,7.09Q33.2,99.62,16.07,120c-2.38,2.8-4.7,5.64-7.28,8.75l4.38,5c7.2-7.74,14.18-14.91,20.78-22.41A344.62,344.62,0,0,1,60.79,83.52a12.27,12.27,0,0,1,9-3.62c3,2.38,6.65,4.74,9.64,7.76,8.83,9,17.77,17.87,25.93,27.43a146.64,146.64,0,0,0,14.26,14.69c.38.34,1.05.36,2.18.72,1.12-1.58,2.35-3.32,3.74-5.31-3.37-3.81-6.43-7.2-9.41-10.66Q99.9,95.65,83.71,76.74a34.69,34.69,0,0,0-4.1-4.29c-4.48-3.68-4.71-5.22-1-9.61a31.16,31.16,0,0,1,3-3.07c6.84-6.08,13.77-12.07,20.57-18.19,7.24-6.51,14.39-13.12,21.53-19.73a10.66,10.66,0,0,0,1.38-2.47c-2.13-1.81-3.17-4.73-7-5.25-6.55,4.57-13.5,9.33-18.82,15.59C90.77,39.78,81.19,48.76,72,58.14a7.48,7.48,0,0,1-10.07,1,21.22,21.22,0,0,1-2.62-2.22A204.5,204.5,0,0,1,35.83,30.69C31,24.29,26,18.05,21,11.8a26.19,26.19,0,0,0-3.25-2.88l-4.53,4.71C17.76,19,22,23.93,26.24,29,35,39.48,42.82,50.86,53.25,60,56.39,62.76,59.44,66,60.76,72.31Z"></path> <path class="cls-1" d="M60.76,72.31C59.44,66,56.39,62.76,53.25,60,42.82,50.86,35,39.48,26.24,29c-4.21-5-8.48-10-13-15.33l4.53-4.71A26.19,26.19,0,0,1,21,11.8c5,6.25,10,12.49,14.81,18.89A204.5,204.5,0,0,0,59.29,56.87a21.22,21.22,0,0,0,2.62,2.22,7.48,7.48,0,0,0,10.07-1c9.21-9.38,18.79-18.36,27.34-28.42,5.32-6.26,12.27-11,18.82-15.59,3.81.52,4.85,3.44,7,5.25a10.66,10.66,0,0,1-1.38,2.47c-7.14,6.61-14.29,13.22-21.53,19.73-6.8,6.12-13.73,12.11-20.57,18.19a31.16,31.16,0,0,0-3,3.07c-3.73,4.39-3.5,5.93,1,9.61a34.69,34.69,0,0,1,4.1,4.29q16.22,18.87,32.4,37.79c3,3.46,6,6.85,9.41,10.66-1.39,2-2.62,3.73-3.74,5.31-1.13-.36-1.8-.38-2.18-.72a146.64,146.64,0,0,1-14.26-14.69c-8.16-9.56-17.1-18.47-25.93-27.43-3-3-6.64-5.38-9.64-7.76a12.27,12.27,0,0,0-9,3.62A344.62,344.62,0,0,0,34,111.27c-6.6,7.5-13.58,14.67-20.78,22.41l-4.38-5c2.58-3.11,4.9-6,7.28-8.75Q33.24,99.66,50.49,79.4C53.22,76.21,55.28,72.12,60.76,72.31Z"></path> </g> </g> </g></svg>