<svg width="25px" height="25px" viewBox="-1.97 0 149.16 149.16" xmlns="http://www.w3.org/2000/svg" fill="#000000" stroke="#000000" stroke-width="0.0014916"><g id="SVGRepo_bgCarrier" stroke-width="0"></g><g id="SVGRepo_tracerCarrier" stroke-linecap="round" stroke-linejoin="round" stroke="#CCCCCC" stroke-width="5.9664"></g><g id="SVGRepo_iconCarrier"> <defs> <style>.cls-1{fill:#000000;}</style> </defs> <g id="Layer_2" data-name="Layer 2"> <g id="Layer_1-2" data-name="Layer 1"> <path d="M54.72,59.09c.72-18.2-1.85-35.75-2.95-53.2C58.15.38,65.68,1.37,72.56.17c4.13-.72,7.88.88,11.63,3.81,0,8-.09,16.25,0,24.53.11,8,.39,16,.68,24a16.32,16.32,0,0,0,1,3.52c17.3-2.3,34.45-.61,50.94-1.34,1.12.63,1.62.88,2.09,1.19,6.21,4,6.46,10.22,6.19,16.64a6.88,6.88,0,0,1-5.36,6.91,31,31,0,0,1-5.92.94c-14.55,1.27-29.11,2.48-43.66,3.75a40.68,40.68,0,0,0-4.28.87,19.49,19.49,0,0,0-.63,3.52q.38,21,.9,42.1c.08,3.14.54,6.27.77,9.41.19,2.53-.76,4.63-3.13,5.59a44,44,0,0,1-8.94,2.83,70.12,70.12,0,0,1-11.14.71c-3.83,0-5.13-1.07-5.59-5-1.1-9.38-2-18.78-2.85-28.19-.62-7.13-.88-14.29-1.49-21.43a46.83,46.83,0,0,0-1.55-6.73A44.35,44.35,0,0,0,46,87.39C36,88.2,26,89,16.06,90.09c-5.78.62-8.15.63-13.82-1.33C1.52,82.75.76,76.52,0,70.29c-.27-2.28,1-3.87,2.72-5A23.72,23.72,0,0,1,14.19,62q18.44-1.14,36.88-2.38C51.91,59.55,52.75,59.37,54.72,59.09Zm22.44,81.48c.22-2.68.5-4.34.47-6q-.31-22.74-.74-45.49c0-2.84-.45-5.71,1.3-8.25a22.64,22.64,0,0,1,10.44-3.7q19.66-1.69,39.31-3.59c2.52-.24,5-.75,7.52-1.13a12.46,12.46,0,0,0,.11-9.33,35.89,35.89,0,0,0-3.73-.37c-9.16,0-18.32,0-27.48.23-5.44.12-11-.23-16.26,1C77.42,66.5,76.38,62.9,75.68,53.72c-1-13.45-.61-26.88-.48-40.33a40.85,40.85,0,0,0-.57-5c-5.1-.71-9.38.35-14.07,2.28.44,6.17.9,12.11,1.28,18.06s.79,12,1,18,1.41,11.89.14,17.81C58,67.11,53,67.62,47.79,67.85c-10.86.47-21.72,1.13-32.57,1.83a38.17,38.17,0,0,0-5.73,1.23c-.15,4.39-.71,8.36,2,12C19.37,82,27,80.68,34.66,80.3s15.24-2.06,22.62-1.36c2.65,4.2,4.35,7.92,4.68,12.43,1,13.41,2.29,26.8,3.61,40.18.3,3,1.17,6,1.86,9.48Z"></path> <path class="cls-1" d="M77.16,140.57l-9.73.46c-.69-3.43-1.56-6.43-1.86-9.48-1.32-13.38-2.65-26.77-3.61-40.18-.33-4.51-2-8.23-4.68-12.43-7.38-.7-15,1-22.62,1.36S19.37,82,11.52,82.9c-2.74-3.63-2.18-7.6-2-12a38.17,38.17,0,0,1,5.73-1.23c10.85-.7,21.71-1.36,32.57-1.83C53,67.62,58,67.11,63,64.54c1.27-5.92,0-11.87-.14-17.81s-.6-12-1-18S61,16.85,60.56,10.68c4.69-1.93,9-3,14.07-2.28a40.85,40.85,0,0,1,.57,5c-.13,13.45-.55,26.88.48,40.33C76.38,62.9,77.42,66.5,88.1,64c5.21-1.24,10.82-.89,16.26-1,9.16-.19,18.32-.19,27.48-.23a35.89,35.89,0,0,1,3.73.37,12.46,12.46,0,0,1-.11,9.33c-2.5.38-5,.89-7.52,1.13q-19.65,1.86-39.31,3.59a22.64,22.64,0,0,0-10.44,3.7c-1.75,2.54-1.35,5.41-1.3,8.25q.42,22.74.74,45.49C77.66,136.23,77.38,137.89,77.16,140.57Z"></path> </g> </g> </g></svg>